<svg version="1.1" viewBox="0.0 0.0 100.0 100.0" fill="none" stroke="none" stroke-linecap="square" stroke-miterlimit="10" xmlns:xlink="http://www.w3.org/1999/xlink" xmlns="http://www.w3.org/2000/svg"><clipPath id="p.0"><path d="m0 0l100.0 0l0 100.0l-100.0 0l0 -100.0z" clip-rule="nonzero"/></clipPath><g clip-path="url(#p.0)"><path fill="#000000" fill-opacity="0.0" d="m0 0l100.0 0l0 100.0l-100.0 0z" fill-rule="evenodd"/><path fill="#000000" fill-opacity="0.0" d="m-0.009350918 -3.4383203E-5l99.996216 0l0 99.999985l-99.996216 0z" fill-rule="evenodd"/><path fill="#000000" fill-opacity="0.0" d="m65.291534 66.660225l18.405624 13.9232025" fill-rule="evenodd"/><path stroke="#757575" stroke-width="4.0" stroke-linejoin="round" stroke-linecap="butt" d="m65.291534 66.660225l18.405624 13.9232025" fill-rule="evenodd"/><path fill="#000000" fill-opacity="0.0" d="m11.750713 46.112923l0 0c0 -17.56431 13.68008 -31.802998 30.555313 -31.802998l0 0c8.103771 0 15.875637 3.3506632 21.60587 9.314883c5.7302322 5.96422 8.949448 14.053438 8.949448 22.488115l0 0c0 17.564312 -13.680084 31.803001 -30.555317 31.803001l0 0c-16.875233 0 -30.555313 -14.238689 -30.555313 -31.803001z" fill-rule="evenodd"/><path stroke="#757575" stroke-width="4.0" stroke-linejoin="round" stroke-linecap="butt" d="m11.750713 46.112923l0 0c0 -17.56431 13.68008 -31.802998 30.555313 -31.802998l0 0c8.103771 0 15.875637 3.3506632 21.60587 9.314883c5.7302322 5.96422 8.949448 14.053438 8.949448 22.488115l0 0c0 17.564312 -13.680084 31.803001 -30.555317 31.803001l0 0c-16.875233 0 -30.555313 -14.238689 -30.555313 -31.803001z" fill-rule="evenodd"/></g></svg>